<svg width="111" height="121" viewBox="0 0 111 121" fill="none" xmlns="http://www.w3.org/2000/svg">
<path fill-rule="evenodd" clip-rule="evenodd" d="M95 5C84.9009 1.96473 79.2162 0.826692 69 0H36C27.0262 0.677639 22.6032 1.86342 15.5 5C11.5454 6.97068 10.046 8.52948 8.5 12C6.87488 15.9049 6.24729 19.8056 5.5 29C2.66913 29.0677 1.46383 29.9412 0 33V49.5L3 53V105L7 107H14V117C15.0928 118.706 15.9149 119.598 18 121H24C25.7666 119.828 26.7547 119.09 28.5 117V107H84V116.5C85.8643 118.87 86.9488 119.934 89 121H94.5C96.7632 119.86 97.7692 118.9 99 116.5V107H105L107 105V53L111 49V33C109.226 30.4198 107.884 29.5762 105 29C104.587 19.3403 104.045 15.5359 102.5 12C100.16 8.24383 98.5166 6.71267 95 5ZM27 18V10.5V10H83V18H27ZM17 63V23H92V63H17ZM20 87C21.6734 83.9584 22.7643 82.8874 25 82C27.2075 81.5404 28.5233 81.5626 31 82C33.1815 83.3699 34.0984 84.4584 35.5 87C35.8663 89.4379 35.8163 90.7449 35.5 93C34.099 95.17 32.957 96.0401 31 97C28.2657 97.4216 26.7342 97.4895 24 97C22.3574 96.2482 21.4626 95.5632 20 93C19.5603 91.0034 19.5764 89.6811 20 87ZM75.5 87C77.1734 83.9584 78.2643 82.8874 80.5 82C82.7075 81.5404 84.0233 81.5626 86.5 82C88.6815 83.3699 89.5984 84.4584 91 87C91.3663 89.4379 91.3163 90.7449 91 93C89.5991 95.17 88.457 96.0401 86.5 97C83.7657 97.4216 82.2342 97.4895 79.5 97C77.8574 96.2482 76.9626 95.5632 75.5 93C75.0603 91.0034 75.0763 89.6811 75.5 87Z" fill="#0A572C"/>
</svg>
