<svg width="128" height="137" viewBox="0 0 128 137" fill="none" xmlns="http://www.w3.org/2000/svg">
<path fill-rule="evenodd" clip-rule="evenodd" d="M122.266 28.8418C113.925 22.389 109.026 19.2893 99.7845 14.8564L68.9763 3.03021C60.3558 0.446932 55.8016 -0.0311064 48.0461 0.351569C43.648 0.774166 41.6895 1.69208 39.0024 4.37806C36.0859 7.44121 34.1021 10.8579 30.1095 19.1738C27.4423 18.2226 26.0041 18.606 23.5413 20.9371L17.6282 36.3412L19.1747 40.6838L0.539538 89.23L3.55712 92.5306L10.0922 95.0392L6.50851 104.375C6.91734 106.359 7.36506 107.487 8.80936 109.543L14.4108 111.693C16.4801 111.232 17.6669 110.897 20.0454 109.571L23.6291 100.236L75.4428 120.125L72.0383 128.994C72.9293 131.875 73.5606 133.257 75.0936 134.987L80.2283 136.958C82.7496 136.705 84.0328 136.169 86.042 134.37L89.4465 125.5L95.048 127.651L97.6319 126.5L116.267 77.9541L121.435 75.6532L127.169 60.716C126.437 57.6714 125.486 56.4027 123.001 54.8314C126.076 45.6652 126.934 41.9194 126.759 38.0646C125.92 33.7192 124.935 31.701 122.266 28.8418ZM54.1235 16.6093L56.8112 9.60749L56.9904 9.1407L109.271 29.2093L106.404 36.678L54.1235 16.6093ZM28.6611 55.0368L42.9958 17.6936L113.014 44.5712L98.6796 81.9144L28.6611 55.0368ZM22.861 78.5178C25.5133 76.2779 26.9155 75.669 29.3208 75.6418C31.5464 76.0038 32.7668 76.496 34.9223 77.792C36.4679 79.8527 36.9339 81.1974 37.3315 84.0725C36.7999 86.4798 36.2848 87.682 35.1813 89.674C33.0958 91.1978 31.7178 91.6008 29.5467 91.7957C26.8429 91.2094 25.3888 90.724 23.0117 89.2871C21.7476 87.9966 21.1577 87.0364 20.7108 84.1193C21.0158 82.0977 21.5047 80.869 22.861 78.5178ZM74.6747 98.4072C77.3271 96.1674 78.7292 95.5584 81.1345 95.5312C83.3601 95.8932 84.5805 96.3855 86.736 97.6814C88.2816 99.7421 88.7476 101.087 89.1452 103.962C88.6136 106.369 88.0985 107.571 86.995 109.563C84.9095 111.087 83.5315 111.49 81.3604 111.685C78.6566 111.099 77.2025 110.613 74.8254 109.177C73.5613 107.886 72.9714 106.926 72.5245 104.009C72.8295 101.987 73.3184 100.758 74.6747 98.4072Z" fill="#EEF1DA"/>
</svg>
