<svg width="394" height="473" viewBox="0 0 394 473" fill="none" xmlns="http://www.w3.org/2000/svg">
<path fill-rule="evenodd" clip-rule="evenodd" d="M297.5 0L33 26C13.0219 32.2585 5.89383 40.1422 0 61.5L34 425.5C41.4009 444.159 48.8027 451.853 71.5 457.5L284 438C274.691 417.307 272.27 409.156 271.5 399L258.5 266H267C273.975 246.022 280.191 235.727 295.5 219L255 222L251 178.5L358 168.5L344.5 32.5C332.811 6.95577 322.309 0.244434 297.5 0ZM185 403.5L181.5 361L223.5 356.5L227.5 400L185 403.5ZM99 412L95.5 369.5L137.5 365L141.5 408.5L99 412ZM177 317L173.5 274.5L215.5 270L219.5 313.5L177 317ZM90 325.5L86.5 283L128.5 278.5L132.5 322L90 325.5ZM168 231L164.5 188.5L206.5 184L210.5 227.5L168 231ZM81 239.5L77.5 197L119.5 192.5L123.5 236L81 239.5ZM51.5 155L43.5 69.5L302 44L311 129.5L51.5 155Z" fill="#D37C4E"/>
<path d="M384 209.5L341.5 214L343 240.5C321.569 250.272 313.43 260.278 306.5 287C304.365 304.197 305.943 313.621 314.5 330C324.978 343.291 333.017 349.133 351.5 356.5L392.5 370V403.5C389.074 405.148 387.241 405.681 384 406.5C379.555 406.897 376.939 406.817 372 406C362.214 403.011 359.409 398.582 358 387L314.5 391.5C322.679 425.256 334.181 437.049 364 448.5L366.5 473L393.5 471V324C380.002 320.906 372.628 318.283 359.5 313.5C354.8 311.011 352.536 309.155 350 304C349.366 299.514 349.34 296.49 350 290C352.887 284.598 354.845 281.823 360.5 278.5C363.542 277.021 364.828 276.774 367 276.5C370.006 275.959 372.656 275.962 379 276.5C386.701 280.565 389.372 284.191 392.5 292V237.5L385.5 235L384 209.5Z" fill="#D37C4E"/>
<path d="M241 71.5L244.5 114L287 110.5L283 67L241 71.5Z" fill="#D37C4E"/>
</svg>
