<svg width="171" height="144" viewBox="0 0 171 144" fill="none" xmlns="http://www.w3.org/2000/svg">
<path fill-rule="evenodd" clip-rule="evenodd" d="M42.4877 0C35.5345 1.52603 32.8024 3.83835 29.6749 10.148L14.8371 48.7105C6.74338 48.7105 0.000244141 62.9177 0.000244141 70.3596L0.000244141 111.628H12.8139H37.7669L133.532 111.628H158.485H170.624V67.6535C172.522 62.1154 167.25 50.2033 154.439 46.6809L141.626 10.148C135.687 3.53228 132.753 0.947752 128.811 0L42.4877 0ZM39.7909 16.2368C40.3469 13.5079 41.3047 12.1542 44.5118 10.148L126.115 10.148C129.671 12.3734 130.555 13.7377 131.51 16.2368L142.3 46.6809L29.6749 46.6809L39.7909 16.2368ZM134.882 69.0065C137.123 64.9825 137.058 63.9087 141.626 61.5647C145.313 60.8759 147.381 60.9471 151.068 61.5647C154.973 64.1777 156.579 65.5278 157.812 70.3596C158.182 73.0016 158.147 74.483 157.812 77.125C155.826 81.2889 154.31 83.0055 151.068 85.2434C147.476 85.9785 145.632 86.1011 142.975 85.2434C140.298 84.3507 138.575 83.0424 134.882 78.478C134.009 74.7784 134.025 72.7062 134.882 69.0065ZM14.1627 69.0065C16.404 64.9825 16.3389 63.9087 20.9068 61.5647C24.5938 60.8759 26.6614 60.9471 30.3484 61.5647C34.2539 64.1777 35.86 65.5278 37.0925 70.3596C37.4631 73.0016 37.4282 74.483 37.0925 77.125C35.1066 81.2889 33.5906 83.0055 30.3484 85.2434C26.7572 85.9785 24.9132 86.1011 22.2556 85.2434C19.5792 84.3507 17.8559 83.0424 14.1627 78.478C13.2898 74.7784 13.3055 72.7062 14.1627 69.0065Z" fill="#0A572C"/>
<path d="M12.8139 111.628L12.8139 133.277C14.5751 138.166 16.2267 140.432 21.5812 142.749C24.4317 143.163 26.3023 143.031 29.674 142.749C34.329 140.814 35.9053 138.875 37.7669 134.63V114.334V111.628H12.8139Z" fill="#0A572C"/>
<path d="M133.532 133.954C136.134 139.719 138.188 141.456 142.299 143.425C145.584 144.212 147.351 144.17 150.392 143.425C153.764 142.072 156.753 138.864 158.485 135.307V115.011V111.628H133.532V133.954Z" fill="#0A572C"/>
</svg>
