<svg width="127" height="107" viewBox="0 0 127 107" fill="none" xmlns="http://www.w3.org/2000/svg">
<path fill-rule="evenodd" clip-rule="evenodd" d="M31.5 0C26.3449 1.12783 24.3194 2.83678 22.0007 7.5L11 36C4.99933 36 0 46.5 0 52V82.5H9.5H28H99H117.5H126.5V50C127.907 45.907 123.998 37.1033 114.5 34.5L105.001 7.5C100.597 2.61057 98.4224 0.700446 95.5 0H31.5ZM29.5006 12C29.9128 9.98319 30.6229 8.98271 33.0006 7.5H93.5006C96.1372 9.14468 96.7925 10.153 97.5006 12L105.501 34.5H22.0007L29.5006 12ZM100.001 51C101.662 48.026 101.614 47.2324 105.001 45.5C107.734 44.991 109.267 45.0436 112.001 45.5C114.896 47.4312 116.087 48.429 117.001 52C117.275 53.9526 117.25 55.0474 117.001 57C115.528 60.0774 114.404 61.3461 112.001 63C109.338 63.5433 107.971 63.6339 106.001 63C104.016 62.3402 102.739 61.3734 100.001 58C99.3534 55.2658 99.3651 53.7342 100.001 51ZM10.5 51C12.1616 48.026 12.1134 47.2324 15.5 45.5C18.2335 44.991 19.7665 45.0436 22.5 45.5C25.3955 47.4312 26.5862 48.429 27.5 52C27.7748 53.9526 27.7489 55.0474 27.5 57C26.0277 60.0774 24.9038 61.3461 22.5 63C19.8375 63.5433 18.4704 63.6339 16.5 63C14.5157 62.3402 13.2381 61.3734 10.5 58C9.85282 55.2658 9.86443 53.7342 10.5 51Z" fill="#0A572C"/>
<path d="M9.5 82.5V98.5C10.8058 102.113 12.0302 103.788 16 105.5C18.1133 105.806 19.5002 105.709 22 105.5C25.4512 104.07 26.6198 102.637 28 99.5V84.5V82.5H9.5Z" fill="#0A572C"/>
<path d="M99 99C100.929 103.261 102.452 104.545 105.5 106C107.935 106.582 109.245 106.551 111.5 106C114 105 116.215 102.629 117.5 100V85V82.5H99V99Z" fill="#0A572C"/>
</svg>
