<svg width="178" height="173" viewBox="0 0 178 173" fill="none" xmlns="http://www.w3.org/2000/svg">
<path fill-rule="evenodd" clip-rule="evenodd" d="M80.1471 0.367896C73.1089 -0.699231 69.7296 0.480404 64.5486 5.25019L36.8768 35.934C29.3207 33.0334 17.934 43.8805 15.2671 50.8281L0.477714 89.3557L12.4403 93.9477L35.7359 102.89L125.141 137.209L148.436 146.152L159.769 150.502L175.528 109.448C179.284 104.958 178.631 91.9475 167.934 84.0679L169.064 45.3699C165.89 37.0651 164.078 33.601 160.737 31.3035L80.1471 0.367896ZM71.8107 14.5599C73.3077 12.2114 74.687 11.2909 78.4 10.5672L154.583 39.8111C157.105 43.1631 157.442 44.7535 157.438 47.429L156.601 79.7179L51.4564 39.3566L71.8107 14.5599ZM141.675 97.9022C145.209 94.9486 145.533 93.9228 150.638 93.3714C154.327 94.0497 156.232 94.8571 159.452 96.755C162.162 100.594 163.178 102.43 162.597 107.383C161.996 109.982 161.433 111.352 160.172 113.699C156.826 116.874 154.796 117.934 150.967 118.861C147.351 118.26 145.585 117.714 143.411 115.961C141.233 114.168 140.093 112.329 138.281 106.745C138.791 102.978 139.549 101.049 141.675 97.9022ZM28.9738 54.6403C32.5082 51.6868 32.8323 50.6609 37.9368 50.1095C41.6257 50.7879 43.5306 51.5953 46.7514 53.4931C49.461 57.3322 50.4766 59.1682 49.8956 64.1208C49.2949 66.7201 48.7314 68.0906 47.4712 70.4368C44.1249 73.6125 42.0945 74.6718 38.2657 75.5991C34.6495 74.9984 32.8841 74.4521 30.7103 72.6989C28.5316 70.9063 27.3917 69.0674 25.5795 63.4827C26.0904 59.716 26.8476 57.787 28.9738 54.6403Z" fill="#EEF1DA"/>
<path d="M12.4403 93.9477L4.68197 114.159C4.57421 119.354 5.30404 122.061 9.47262 126.143C11.9853 127.552 13.7789 128.099 17.0279 129.043C22.067 128.906 24.2338 127.66 27.4927 124.364L34.7661 105.416L35.7359 102.89L12.4403 93.9477Z" fill="#EEF1DA"/>
<path d="M117.14 158.052C117.503 164.366 118.798 166.725 121.93 170.036C124.715 171.948 126.38 172.542 129.486 172.937C133.119 172.882 137.058 170.958 139.95 168.258L147.224 149.31L148.436 146.152L125.141 137.209L117.14 158.052Z" fill="#EEF1DA"/>
</svg>
