<svg width="128" height="161" viewBox="0 0 128 161" fill="none" xmlns="http://www.w3.org/2000/svg">
<path d="M106.698 116.789L105.35 120.302L121.158 126.37L122.507 122.857L106.698 116.789Z" fill="#D9D9D9"/>
<path d="M63.7432 118.438C67.2562 119.786 70.1927 117.387 71.3726 114.313C72.5526 111.239 103.267 33.8501 103.267 33.8501C104.062 28.8732 101.917 26.4207 99.2085 24.7347L41.6827 2.65263C37.7317 3.26053 35.9499 4.24243 33.4455 7.0482L2.598 87.4087C1.80753 91.6247 2.93867 93.4736 6.21731 96.3556L34.9802 107.397M63.7432 118.438C60.2301 117.089 34.9802 107.397 34.9802 107.397M63.7432 118.438L34.9802 107.397M36.3089 99.3415L47.7262 103.724L49.9219 104.567M54.7523 106.421L60.9001 108.781C63.1321 108.746 65.0971 108.048 66.3693 106.346L71.5949 92.7331M34.9802 107.397C34.9802 107.397 29.6371 121.972 28.2886 125.485C26.9401 128.998 28.6655 133.691 32.1785 135.04M32.1785 135.04C35.6915 136.388 88.3869 156.616 92.3391 158.133M32.1785 135.04L92.3391 158.133M92.3391 158.133C96.2913 159.65 100.882 156.878 101.725 154.682M101.725 154.682C102.568 152.487 107.625 139.313 107.625 139.313M101.725 154.682L107.625 139.313M107.625 139.313L108.636 136.678M108.636 136.678L112.149 138.027C114.285 137.779 115.451 137.385 116.133 135.525L118.493 129.377C120.763 129.519 121.744 129.223 123.017 128.091L125.04 122.822C124.927 121.545 124.613 120.97 123.518 120.222L122.201 119.716M108.636 136.678L105.562 135.498C104.031 134.12 103.456 133.253 103.061 131.515L105.758 124.489C103.9 123.42 103.151 122.592 102.817 120.337L104.84 115.067C105.747 114.121 106.364 113.887 107.71 114.154L109.694 114.915M109.694 114.915L113.402 105.255M109.694 114.915L122.201 119.716M122.201 119.716L125.909 110.056M59.3938 26.0779L29.9271 49.0274L46.1748 55.2643L25.5615 86.6507L81.2654 59.6653L65.8959 53.7655L87.0589 36.6975L59.3938 26.0779ZM106.698 116.789L105.35 120.302L121.158 126.37L122.507 122.857L106.698 116.789ZM108.055 126.379L106.033 131.648L106.574 132.863L112.722 135.223L114.274 133.804L115.96 129.413L108.055 126.379Z" stroke="#EEF1DA" stroke-width="4"/>
</svg>
