<svg width="160" height="160" viewBox="0 0 160 160" fill="none" xmlns="http://www.w3.org/2000/svg">
<path fill-rule="evenodd" clip-rule="evenodd" d="M49.8831 0.995511C48.1578 1.21527 47.4578 1.56239 46.5623 2.47622L65.9012 42.6205L60.505 45.0266L42.4113 4.3271C40.9477 4.72523 40.2672 5.14915 39.2752 6.2231L57.1842 46.5073L53.0332 48.3582L35.5393 7.8889C33.9809 7.91407 33.1509 8.20592 31.8034 9.55469L49.4126 49.7238L45.3769 51.2745L28.8978 10.8503C27.0508 10.9666 26.056 11.2547 24.7468 12.7012C30.427 27.9103 32.9705 37.2273 34.6456 43.363C36.8231 51.3391 37.533 53.9391 41.7575 57.1182L55.0444 64.6296C59.3631 67.9921 61.5492 71.9146 65.1742 81.2619L1.84896 109.996C0.690231 112.648 0.329073 113.913 0.374472 115.629C0.915858 118.104 1.57033 119.401 3.25914 121.559C5.30182 122.818 6.41122 123.186 8.35682 123.516L69.3761 96.3076L97.3468 156.987C98.5162 158.262 99.4533 158.673 101.314 159.199C103.783 158.86 105.026 158.346 107.011 156.908C108.188 155.352 108.565 154.181 108.969 151.804L81.5056 88.9086C81.4869 88.3055 81.594 87.9272 82.197 87.1075L100.461 78.9636C102.766 79.3169 103.837 79.7008 105.259 80.8053C107.652 83.3564 108.654 83.8903 110.304 84.7696C110.389 84.8149 110.476 84.8611 110.565 84.9086C113.681 86.2133 115.409 86.768 118.477 87.6012C134.77 88.1081 142.928 84.9534 155.12 71.0132C156.617 68.564 157.373 66.5859 158.577 62.0074C160.439 52.7952 158.677 47.9317 150.222 39.8564C146.651 37.4082 144.411 36.5762 140.027 35.9428C121.204 34.4538 113.494 39.8571 101.792 53.9866C100.371 56.9728 99.6616 58.8068 98.5653 62.3921C98.5246 64.447 98.4529 65.6228 98.2209 67.7707L96.9533 71.0729L77.6048 78.4561C75.9788 78.4205 75.058 77.9964 73.4067 76.8446C69.5326 70.2225 67.2917 65.8866 68.0277 58.5916L71.9902 42.8912C72.601 37.514 68.685 31.5279 62.9122 22.7035C59.1185 16.9042 54.5228 9.87915 49.8831 0.995511ZM106.384 62.6379C118.932 47.2249 125.005 45.4567 134.816 43.2423L135.162 42.3417L132.948 41.8362C123.159 41.3529 118.053 44.319 109.357 53.1017C108.439 56.4289 107.593 58.3565 106.015 61.8073L106.384 62.6379Z" fill="#EEF1DA"/>
</svg>
