<svg width="143" height="130" viewBox="0 0 143 130" fill="none" xmlns="http://www.w3.org/2000/svg">
<path fill-rule="evenodd" clip-rule="evenodd" d="M19.2718 0.423254C17.7399 1.24668 17.2108 1.82161 16.7022 2.99567L49.1431 33.5431L44.9676 37.7233L13.4903 6.21119C12.2666 7.10738 11.7831 7.74705 11.2419 9.10516L42.398 40.2957L39.186 43.5112L8.35112 11.9991C6.90525 12.5811 6.23497 13.151 5.46035 14.8931L36.2953 46.0837L33.0833 48.9776L3.21197 17.144C1.52935 17.9145 0.703935 18.5399 0 20.3595C10.7534 32.5228 16.4669 40.3094 20.2296 45.4373C25.1208 52.1033 26.7153 54.2763 31.7985 55.7302L46.8947 57.9811C52.1316 59.5726 55.5782 62.4512 62.3122 69.8785L13.4903 119.398C13.3589 122.289 13.4753 123.6 14.1327 125.186C15.5248 127.301 16.6006 128.278 18.9506 129.687C21.309 130.131 22.4764 130.077 24.411 129.687L71.6269 82.4191L119.485 129.044C121.034 129.816 122.056 129.863 123.982 129.687C126.165 128.486 127.141 127.561 128.479 125.507C129.02 123.633 128.953 122.404 128.479 120.041L80.2992 71.1647C80.0657 70.6084 80.0301 70.2168 80.2992 69.2354L94.4319 55.0871C96.7097 54.5912 97.8478 54.5656 99.571 55.0871C102.719 56.6114 103.846 56.7507 105.702 56.9801C105.797 56.9919 105.895 57.0039 105.995 57.0164C109.371 57.1179 111.184 57.0164 114.346 56.6949C129.739 51.3291 136.225 45.4603 142.611 28.0767C143.131 25.2538 143.128 23.1361 142.611 18.4302C141.048 9.16272 137.661 5.25355 126.873 0.744806C122.662 -0.261246 120.272 -0.235137 115.952 0.744806C97.8458 6.10021 92.5848 13.9075 86.7232 31.2923C86.467 34.5892 86.4618 36.5557 86.7232 40.2957C87.4216 42.2287 87.776 43.3522 88.3292 45.4406V48.9776L72.9117 62.8044C71.3809 63.3539 70.3693 63.2879 68.4149 62.8044C62.425 58.0104 58.779 54.7656 56.8519 47.6914L54.9247 31.6138C53.5679 26.3749 47.7668 22.1897 39.215 16.0201C33.595 11.9656 26.787 7.05411 19.2718 0.423254ZM94.1107 37.7233C100.301 18.8373 105.338 15.01 113.704 9.42668V8.46202L111.455 8.78357C102.144 11.8403 98.4394 16.4394 93.4683 27.7552C93.804 31.1902 93.7053 33.2928 93.4683 37.0802L94.1107 37.7233Z" fill="#0A572C"/>
</svg>
