<svg width="132" height="161" viewBox="0 0 132 161" fill="none" xmlns="http://www.w3.org/2000/svg">
<path d="M97.8559 47.7402L107.353 23.0004L73.7438 10.0991L64.4262 34.3722M97.8559 47.7402L81.1411 41.0562M97.8559 47.7402L100.477 49.2821C112.322 57.0755 114.902 63.401 114.424 77.1298L112.632 81.7977L92.3845 134.545M64.4262 34.3722L81.1411 41.0562M64.4262 34.3722L57.5328 32.7972C45.7781 33.1453 40.5759 36.2719 32.6274 44.6598L30.4772 50.2613M81.1411 41.0562L84.0976 33.3542M84.0976 33.3542C86.6108 33.7833 89.1946 32.6329 90.0906 30.2989C90.6989 27.319 89.8361 25.3811 87.5021 24.4852C84.2346 23.2309 82.5843 24.7397 81.2216 26.8944C80.3256 29.2284 81.4761 31.8123 84.0976 33.3542ZM10.2294 103.009L8.25839 108.143C9.31723 115.2 11.1419 119.124 18.5369 126.014L20.4041 126.73M10.2294 103.009L30.4772 50.2613M10.2294 103.009L92.3845 134.545M30.4772 50.2613L40.7466 54.2034M92.3845 134.545L90.7718 138.746L71.751 146.441L68.9502 145.366M20.4041 126.73L17.1787 135.133L65.9041 153.301L68.9502 145.366M20.4041 126.73L68.9502 145.366" stroke="#EEF1DA" stroke-width="6"/>
<path d="M44.481 55.6368L88.826 72.6593L110.765 81.081M70.555 74.2149L61.6198 79.3541L59.6488 84.4888L61.016 89.2982L60.2993 91.1654L57.7154 92.3158L56.7818 91.9575L55.0562 88.0816L56.848 83.4137L54.1888 79.1795L52.397 83.8474L46.1541 88.949L44.3622 93.6169L44.2207 96.776L44.4376 99.0015L48.8224 107.112L50.6896 107.828L50.1144 106.536L50.4727 105.603L50.1851 104.957L51.2602 102.156L55.1361 100.43L57.0032 101.147L57.2908 101.793L60.0916 102.868L62.6755 101.718L64.4673 97.0499L65.4009 97.4083L66.4098 103.151L64.2596 108.753L59.667 112.346L62.8261 112.487L70.5778 109.036L72.2281 107.527L74.02 102.859L74.1615 99.7L67.0421 81.9711L69.1923 76.3696L70.555 74.2149Z" stroke="#EEF1DA" stroke-width="3"/>
</svg>
