<svg width="1231" height="596" viewBox="0 0 1231 596" fill="none" xmlns="http://www.w3.org/2000/svg">
<path d="M182.544 252.996V272.457H150.95H119.356V360.033V447.608H99.4629H79.5703V360.033V272.457H49.1464H18.7224V252.996V233.535H100.633H182.544V252.996Z" fill="#D35A15"/>
<path d="M293.591 289.427C311.904 298.642 322.442 316.495 326.292 344.829L327.699 355.167H308.948C290.317 355.167 290.198 355.126 290.198 348.845C290.198 313.776 238.395 306.578 229.359 340.391C228.081 345.174 227.031 371.254 227.024 398.347L227.01 447.608H209.457H191.905V390.747C191.905 329.291 193.18 320.884 204.943 304.855C220.698 283.385 265.938 275.513 293.591 289.427Z" fill="#D35A15"/>
<path fill-rule="evenodd" clip-rule="evenodd" d="M461.777 290.184C490.776 303.982 505.674 327.301 507.406 361.594L508.433 381.927H444.95C375.088 381.927 376.906 381.464 386.791 396.712C401.779 419.83 435.587 424.834 457.958 407.246C464.305 402.256 468.03 401.388 483.116 401.388C503.573 401.388 504.464 402.735 493.963 417.801C457.038 470.789 367.32 459.253 347.376 398.955C322.763 324.548 393.22 257.56 461.777 290.184ZM381.47 348.229C381.47 339.392 399.85 321.709 412.181 318.682C435.243 313.024 456.497 321.777 465.821 340.776L470.497 350.302H425.982C401.5 350.302 381.47 349.37 381.47 348.229Z" fill="#D35A15"/>
<path fill-rule="evenodd" clip-rule="evenodd" d="M646.441 289.311C674.284 300.408 692.129 327.81 694.481 363.073L695.74 381.927H631.105H566.471L568.9 388.616C579.398 417.502 627.663 427.909 645.795 405.197C649.083 401.079 688.049 399.415 688.049 403.392C688.049 449.08 589.6 467.232 552.375 428.407C487.511 360.753 559.312 254.58 646.441 289.311ZM573.852 336.696C579.277 328.467 588.341 321.884 598.75 318.617C621.274 311.543 655.285 329.8 655.285 348.964C655.285 349.701 635.802 350.302 611.99 350.302H611.738C581.384 350.302 570.695 350.302 569.355 346.623C568.627 344.623 570.662 341.536 573.803 336.771L573.852 336.696Z" fill="#D35A15"/>
<path fill-rule="evenodd" clip-rule="evenodd" d="M838.014 289.165C900.486 314.16 904.038 415.067 843.478 444.288C817.003 457.064 785.635 453.539 767.662 435.766L758.259 426.468V472.312V518.155H739.426H720.594L721.289 431.188L721.984 344.22L728.553 329.624C746.978 288.678 793.665 271.421 838.014 289.165ZM844.567 391.049C819.184 445.555 741.509 405.837 760.828 348.232C761.088 347.457 761.312 346.743 761.516 346.093L761.518 346.086C762.261 343.719 762.738 342.196 763.712 341.673C765.468 340.729 768.838 343.03 778.281 349.479C779.726 350.466 781.313 351.55 783.059 352.735L784.551 353.748C794.673 360.624 799.632 363.992 804.55 363.928C809.273 363.866 813.957 360.64 823.14 354.314L824.548 353.345C833.783 346.991 842.009 341.467 842.828 341.07C850.041 337.579 851.389 376.397 844.567 391.049Z" fill="#D35A15"/>
<path d="M950.163 334.937C950.163 400.49 956.548 413.551 988.587 413.551C1022.68 413.551 1029.73 399.724 1029.73 332.911V287.053H1048.61H1067.49L1066.75 376.511L1066.01 465.97L1058.26 482.315C1030.93 539.995 933.753 533.306 916.313 472.543C913.437 462.513 948.284 464.376 956.641 474.698C983.04 507.31 1027.04 488.141 1029.32 443.04L1030.36 422.549L1021.71 432.501C993.452 465.011 935.932 450.316 919.281 406.331C914.738 394.333 914.081 387.135 913.222 339.963L912.26 287.053H931.212H950.163V334.937Z" fill="#D35A15"/>
<path fill-rule="evenodd" clip-rule="evenodd" d="M1137.39 235.967C1143.54 242.36 1143.31 249.478 1136.74 256.124L1131.42 261.51L1138.19 273.187C1141.91 279.609 1144.35 285.489 1143.62 286.25C1140.07 289.948 1130.23 283.808 1125.4 274.882C1118.28 261.719 1113.98 262.182 1113.98 276.106C1113.98 286.16 1113.51 287.053 1108.13 287.053H1102.28V259.078V231.102H1117.5C1129.59 231.102 1133.67 232.099 1137.39 235.967ZM1121.59 254.974C1114.47 255.689 1113.98 255.246 1113.98 248.131C1113.98 241.015 1114.47 240.572 1121.59 241.288C1127.95 241.925 1129.2 243.046 1129.2 248.131C1129.2 253.215 1127.95 254.336 1121.59 254.974Z" fill="#D35A15"/>
<path fill-rule="evenodd" clip-rule="evenodd" d="M1133.22 214.18C1172.05 225.39 1175.66 282.039 1138.65 299.508C1103.31 316.199 1065.28 278.417 1080.16 241.397C1089.38 218.457 1110.5 207.622 1133.22 214.18ZM1084.81 257.742C1084.9 241.686 1089.06 233.754 1102.26 224.412C1126.89 206.987 1161.99 232.158 1157.4 263.96C1150.58 311.253 1084.54 305.595 1084.81 257.742Z" fill="#D35A15"/>
<path d="M827.534 121.024C886.643 189.983 905.045 240.419 887.003 284.012C880.736 299.158 881.63 298.922 870.397 288.374C836.174 256.236 778.984 254.504 740.922 284.453L725.911 296.261L720.76 283.752C702.402 239.161 721.251 188.711 782.46 118.592C805.275 92.453 802.937 92.3265 827.534 121.024Z" fill="#274D01"/>
<path d="M827.534 121.024C886.643 189.983 905.045 240.419 887.003 284.012C880.736 299.158 881.63 298.922 870.397 288.374C836.174 256.236 778.984 254.504 740.922 284.453L725.911 296.261L720.76 283.752C702.402 239.161 721.251 188.711 782.46 118.592C805.275 92.453 802.937 92.3265 827.534 121.024Z" fill="black" fill-opacity="0.2"/>
</svg>
