<svg width="292" height="381" viewBox="0 0 292 381" fill="none" xmlns="http://www.w3.org/2000/svg">
<circle cx="174.5" cy="235.5" r="106.5" fill="#DAF0F6"/>
<ellipse cx="175" cy="235" rx="58" ry="57" fill="#F3F3F3"/>
<path d="M0 374.013V379.013L80 379.947L79.5 379.513L107.5 355.891L107 355.304L76.5 319.513L71.5 315.513H68L0 374.013Z" fill="#D9D9D9"/>
<path d="M128.5 380.513L125.5 377.013L107.5 355.891L79.5 379.513L80 379.947L128.5 380.513Z" fill="#C4C3C9"/>
<path fill-rule="evenodd" clip-rule="evenodd" d="M178 341.013V339.513H183.5C196.36 332.411 198.679 318.379 188.5 307.067C187.079 305.487 185.414 303.961 183.5 302.513L177 301.013L151 299.376L136 298.431L113.5 297.013L107.5 297.513L95.5 304.013L76.5 319.513L107 355.304L128 339.513L132.5 338.513L178 341.013ZM165.5 327.513C165.214 322.06 165.279 318.904 166 313.013C166.996 310.954 167.964 310.3 170 309.513C170 309.513 167.5 309.013 179 310.513C190.5 312.013 186.5 330.513 179 331.013C171.5 331.513 168.5 331.013 168.5 331.013C167.427 329.889 166.753 329.076 165.5 327.513Z" fill="#F7EBE2"/>
<path d="M125.5 377.013L139.5 365.013L205 369.013C208.822 368.933 210.822 368.653 214 367.513L275.5 313.513C277.521 298.348 273.636 294.879 258.5 295.013L202.5 342.513L178 341.013L132.5 338.513L128 339.513L107 355.304L107.5 355.891L125.5 377.013Z" fill="#F7E2D2"/>
<path d="M166 313.013C165.279 318.904 165.214 322.06 165.5 327.513C166.753 329.076 167.427 329.889 168.5 331.013C168.5 331.013 171.5 331.513 179 331.013C186.5 330.513 190.5 312.013 179 310.513C167.5 309.013 170 309.513 170 309.513C167.964 310.3 166.996 310.954 166 313.013Z" fill="#F7E2D2"/>
<path d="M97 186L138 189.5C143.102 172.121 147.37 162.377 157.5 145H153.5C127.428 152.264 115.156 161.449 97 186Z" fill="#C9E1EE"/>
<path d="M128 202.513C116.955 221.521 115.622 235.084 123.5 259.013L87.5 256.513C86.4046 256.133 85.8422 255.822 85.5 254.013C81.1652 227.975 82.5791 216.403 90.5 200.013C91.5798 199.119 92.2449 198.945 93.5 199.013L126.5 201.513C127.46 201.843 127.765 202.066 128 202.513Z" fill="#C9E1EE"/>
<path d="M107.5 297.513L113.5 297.013L136 298.431C133.623 289.761 133.223 284.507 132.523 275.303L132.5 275C132.071 274.138 131.685 273.766 130.5 273.5C118.167 272.833 92.9 271.5 90.5 271.5C96.2908 281.96 99.574 287.812 107.5 297.513Z" fill="#C9E1EE"/>
<path d="M156.5 180.5C175.336 175.185 185.535 175.868 203 183.5C200.006 160.515 195.104 152.705 184 142.5H181.5C169.12 149.485 163.499 157.363 156.5 180.5Z" fill="#C9E1EE"/>
<path d="M220.5 195.5L260 198.5L260.5 197.5C246.265 171.056 235.149 160.406 210 148.5H207.5V149.5C214.303 164.495 217.71 173.602 220.5 195.5Z" fill="#C9E0EE"/>
<path d="M224 267L260.5 270C260.97 269.805 261.21 269.638 261.5 269C270.115 246.738 269.616 234.402 265 212.5L229 209.5L228.5 210.5C235.738 232.175 235.513 244.513 224 267Z" fill="#C9E1EE"/>
<path d="M214 280.5L254.5 283.5C236.091 310.097 222.423 318.843 195.5 325.5V321.5C204.05 308.21 208.751 299.276 214 280.5Z" fill="#C9E1EE"/>
<path d="M177 128.5C182.208 128.367 185.181 128.728 190.5 129.5C191.781 109.246 192.574 97.6728 194 77C196.273 76.5899 197.708 76.5936 200.5 77C218.327 78.1757 225.319 78.7094 234 79.5C237.852 79.6827 239.802 79.6687 243 79.5C258.034 76.8224 266.139 73.6804 279 60C286.389 49.7961 288.6 43.8489 290.5 33C291.781 23.9748 291.859 18.8091 291.997 9.71153L292 9.50001C291.121 6.33533 289.983 5.17003 287 4.00001C267.693 2.0043 257.381 1.24551 240 0.500008C235.634 0.183942 233.235 0.211219 229 0.500008C213.621 3.33341 206.459 7.17183 196 17.5C191.1 23.8977 188.763 27.6639 186 35C183.78 44.368 183.044 49.5077 182.5 58.5C182.27 61.8992 182.053 65.0289 181.84 68C181.014 79.5571 180.265 88.7151 179.2 102L179 104.5L177 128.5Z" fill="#D1E8D1"/>
<path d="M181.84 68C179.243 55.2874 176.441 48.8211 170 38C162.615 31.1888 158.486 27.8841 150.5 23.5C146.24 21.4735 142.573 20.6429 137.5 19.5C137.5 19.5 114 17.5 113.5 17.5C113 17.5 97 16.5 97 16.5C94.5297 17.6414 93.4579 18.5539 92.5 21C91.0792 32.9554 90.4582 39.646 90.5 51.5C90.6268 54.0793 90.7665 55.5644 91.5 58.5C93.4982 64.2229 94.7017 67.2896 97 72.5C102.449 80.6086 106.25 84.7371 115 91C123.762 95.8658 128.422 97.3865 136.5 99L155 100.5L179.2 102C180.265 88.7151 181.014 79.5571 181.84 68Z" fill="#EFF0D2"/>
<path d="M191 218C194.083 224.428 201.292 223.809 203.5 218C203.756 203.947 199.433 199.388 186 195.5C184.5 193 185 190 181 189C179.509 188.536 178.57 188.458 176.5 189C173.903 190.12 173 193 171 194.5L166.5 195C156.327 197.925 152.5 203.5 151 214C150.685 217.477 150.658 219.35 151 222.5C153.627 229.711 155.981 232.726 162 236L186 246.5C186.864 247.388 187.158 247.947 187.5 249C188.061 251.665 188.172 253.255 187.5 256.5C186.569 258.906 185.618 259.944 183.5 261.5C179.635 261.96 177.449 262.076 173.5 262C170.162 261.518 168.437 261.177 165.5 260.5C163.804 259.341 162.906 258.608 161.5 257C161.029 254.899 160.966 253.828 161 252C160.21 249.408 159.315 248.326 157 247C155.194 246.556 154.221 246.649 152.5 247C150.025 248.331 149.118 249.496 148 252C147.875 254.259 147.874 255.578 148 258C151.49 266.7 154.313 270.025 161 273L165.5 274C166.689 277.642 167.96 279.155 171 281C172.564 281.385 173.437 281.358 175 281C177.724 279.535 178.722 278.109 180 275H184.5C193.449 271.872 196.976 268.812 200 260.5C201.118 255.034 201.051 251.969 200.5 246.5C198.414 240.792 196.576 238.25 192 235C185.5 231 175 228 167 224C165.779 222.827 165.222 222.065 164.5 220.5C164.07 217.807 164.033 216.184 164.5 213C165.679 210.186 166.767 209.101 169.5 208C175.767 207.855 179.135 208.134 185 209C187.991 210.026 189.22 210.99 190.5 213.5C190.739 215.008 190.86 215.934 191 218Z" fill="#D1E8D2"/>
</svg>
