<svg width="265" height="309" viewBox="0 0 265 309" fill="none" xmlns="http://www.w3.org/2000/svg">
<path d="M44.8304 32C27.7326 35.2383 20.0223 50.1713 20.8304 61H34.3306H228.831H239.33C239.057 47.9027 230.276 34.5751 215.33 32H181.831H169.331H96.8306H83.8306H44.8304Z" fill="#274D01"/>
<path d="M54.3306 75C55.691 71.5281 60.6909 71.569 61.8306 75L79.8306 294C78.3695 297.401 73.3576 297.37 71.8306 294L54.3306 75Z" fill="#274D01"/>
<path d="M78.3306 75C79.691 71.5281 84.6909 71.569 85.8306 75L98.3306 294C96.8695 297.401 91.8576 297.37 90.3306 294L78.3306 75Z" fill="#274D01"/>
<path d="M102.831 75C104.191 71.5281 109.191 71.569 110.331 75L116.831 294C115.369 297.401 110.358 297.37 108.831 294L102.831 75Z" fill="#274D01"/>
<path d="M128.331 75C129.691 71.5281 134.691 71.569 135.831 75V294C134.369 297.401 129.358 297.37 127.831 294L128.331 75Z" fill="#274D01"/>
<path d="M152.331 75C153.691 71.5281 158.691 71.569 159.831 75L154.831 294C153.369 297.401 148.358 297.37 146.831 294L152.331 75Z" fill="#274D01"/>
<path d="M177.331 75C178.691 71.5281 183.691 71.569 184.831 75L173.331 294C171.869 297.401 166.858 297.37 165.331 294L177.331 75Z" fill="#274D01"/>
<path d="M202.331 75C203.691 71.5281 208.691 71.569 209.831 75L191.831 293C190.369 296.401 185.358 296.37 183.831 293L202.331 75Z" fill="#274D01"/>
<path d="M256.831 81L226.887 85L224.782 111L258.831 100.5C261.019 99.0126 262.176 97.9725 263.831 95C264.526 91.4856 264.439 89.5137 263.831 86C261.837 82.9068 260.26 81.8866 256.831 81Z" fill="#274D01"/>
<path d="M36.281 84.5L8.83063 80.5C4.69439 82.616 3.08548 84.2641 1.33063 88C0.906701 90.7612 0.873195 92.3139 1.33063 95C3.25259 98.2305 4.61962 99.3088 7.33063 100.5L38.3559 109.5L36.281 84.5Z" fill="#274D01"/>
<path d="M83.8306 20V32H96.8306V21C98.9491 17.2572 100.435 15.6865 103.831 14H160.831C165.114 15.6026 166.925 17.605 169.331 23V32H181.831V20C179.011 9.4912 175.231 5.21001 163.831 1H102.331C90.8896 4.69739 87.36 9.3113 83.8306 20Z" fill="#274D01"/>
<path d="M34.3306 61H20.8304C20.0223 50.1713 27.7326 35.2383 44.8304 32H83.8306M34.3306 61H228.831M34.3306 61L36.281 84.5M228.831 61H239.33C239.057 47.9027 230.276 34.5751 215.33 32H181.831M228.831 61L226.887 85M36.281 84.5L8.83063 80.5C4.69439 82.616 3.08548 84.2641 1.33063 88C0.906701 90.7612 0.873195 92.3139 1.33063 95C3.25259 98.2305 4.61962 99.3088 7.33063 100.5L38.3559 109.5M36.281 84.5L38.3559 109.5M38.3559 109.5L54.8306 308H208.831L224.782 111M226.887 85L256.831 81C260.26 81.8866 261.837 82.9068 263.831 86C264.439 89.5137 264.526 91.4856 263.831 95C262.176 97.9725 261.019 99.0126 258.831 100.5L224.782 111M226.887 85L224.782 111M83.8306 32V20C87.36 9.3113 90.8896 4.69739 102.331 1H163.831C175.231 5.21001 179.011 9.4912 181.831 20V32M83.8306 32H96.8306M181.831 32H169.331M169.331 32V23C166.925 17.605 165.114 15.6026 160.831 14H103.831C100.435 15.6865 98.9491 17.2572 96.8306 21V32M169.331 32H96.8306M54.3306 75C55.691 71.5281 60.6909 71.569 61.8306 75L79.8306 294C78.3695 297.401 73.3576 297.37 71.8306 294L54.3306 75ZM78.3306 75C79.691 71.5281 84.6909 71.569 85.8306 75L98.3306 294C96.8695 297.401 91.8576 297.37 90.3306 294L78.3306 75ZM102.831 75C104.191 71.5281 109.191 71.569 110.331 75L116.831 294C115.369 297.401 110.358 297.37 108.831 294L102.831 75ZM128.331 75C129.691 71.5281 134.691 71.569 135.831 75V294C134.369 297.401 129.358 297.37 127.831 294L128.331 75ZM152.331 75C153.691 71.5281 158.691 71.569 159.831 75L154.831 294C153.369 297.401 148.358 297.37 146.831 294L152.331 75ZM177.331 75C178.691 71.5281 183.691 71.569 184.831 75L173.331 294C171.869 297.401 166.858 297.37 165.331 294L177.331 75ZM202.331 75C203.691 71.5281 208.691 71.569 209.831 75L191.831 293C190.369 296.401 185.358 296.37 183.831 293L202.331 75Z" stroke="#274D01"/>
</svg>
