<svg width="265" height="326" viewBox="0 0 265 326" fill="none" xmlns="http://www.w3.org/2000/svg">
<path d="M67.9979 14.5372C50.6698 12.9372 39.1421 25.1665 36.9341 35.7985L49.9114 39.5196L236.877 93.1311L246.97 96.0252C250.317 83.3599 245.55 68.1282 231.893 61.5333L199.691 52.2995L187.675 48.854L117.984 28.8703L105.487 25.2871L67.9979 14.5372Z" fill="#EEF1DA"/>
<path d="M65.2776 58.49C67.5424 55.5276 72.3373 56.9451 72.4871 60.5573L29.4252 276.035C27.0832 278.902 22.2742 277.49 21.7351 273.83L65.2776 58.49Z" fill="#EEF1DA"/>
<path d="M88.3479 65.1053C90.6126 62.1429 95.4075 63.5604 95.5574 67.1726L47.2086 281.134C44.8665 284.001 40.0575 282.589 39.5185 278.929L88.3479 65.1053Z" fill="#EEF1DA"/>
<path d="M111.899 71.8584C114.164 68.896 118.958 70.3135 119.108 73.9257L64.9919 286.234C62.6499 289.101 57.8409 287.689 57.3018 284.029L111.899 71.8584Z" fill="#EEF1DA"/>
<path d="M136.411 78.8872C138.676 75.9248 143.471 77.3422 143.62 80.9545L83.2559 291.471C80.9138 294.338 76.1048 292.926 75.5658 289.266L136.411 78.8872Z" fill="#EEF1DA"/>
<path d="M159.481 85.5025C161.746 82.5401 166.541 83.9575 166.691 87.5697L101.52 296.708C99.1778 299.575 94.3688 298.163 93.8298 294.503L159.481 85.5025Z" fill="#EEF1DA"/>
<path d="M183.513 92.3934C185.778 89.431 190.572 90.8485 190.722 94.4607L119.303 301.807C116.961 304.674 112.152 303.262 111.613 299.602L183.513 92.3934Z" fill="#EEF1DA"/>
<path d="M207.544 99.2843C209.809 96.3219 214.604 97.7394 214.754 101.352L137.362 305.945C135.02 308.812 130.211 307.4 129.672 303.74L207.544 99.2843Z" fill="#EEF1DA"/>
<path d="M258.279 120.074L228.393 115.666L219.203 140.078L254.827 139.37C257.341 138.544 258.739 137.863 261.149 135.461C262.786 132.275 263.247 130.355 263.63 126.81C262.567 123.287 261.331 121.872 258.279 120.074Z" fill="#EEF1DA"/>
<path d="M45.3088 62.6469L20.0243 51.2355C15.465 52.1294 13.4642 53.2702 10.7475 56.3777C9.57893 58.915 9.11875 60.3983 8.81807 63.1065C9.77513 66.7416 10.792 68.155 13.0696 70.0472L40.4123 87.2503L45.3088 62.6469Z" fill="#EEF1DA"/>
<path d="M108.795 13.7519L105.487 25.2871L117.984 28.8703L121.016 18.2965C124.084 15.2826 125.945 14.1822 129.674 13.4971L184.466 29.2084C188.141 31.9296 189.331 34.3537 190.156 40.2027L187.675 48.854L199.691 52.2995L202.999 40.7644C203.185 29.8855 200.731 24.7283 190.933 17.5389L131.815 0.587228C119.798 0.987822 115.134 4.45012 108.795 13.7519Z" fill="#EEF1DA"/>
<path d="M49.9114 39.5196L36.9341 35.7985C39.1421 25.1665 50.6698 12.9372 67.9979 14.5372L105.487 25.2871M49.9114 39.5196L236.877 93.1311M49.9114 39.5196L45.3088 62.6469M236.877 93.1311L246.97 96.0252C250.317 83.3599 245.55 68.1282 231.893 61.5333L199.691 52.2995M236.877 93.1311L228.393 115.666M45.3088 62.6469L20.0243 51.2355C15.465 52.1294 13.4642 53.2702 10.7475 56.3777C9.57893 58.915 9.11875 60.3983 8.81807 63.1065C9.77513 66.7416 10.792 68.155 13.0696 70.0472L40.4123 87.2503M45.3088 62.6469L40.4123 87.2503M40.4123 87.2503L1.53482 282.602L149.569 325.05L219.203 140.078M228.393 115.666L258.279 120.074C261.331 121.872 262.567 123.287 263.63 126.81C263.247 130.355 262.786 132.275 261.149 135.461C258.739 137.863 257.341 138.544 254.827 139.37L219.203 140.078M228.393 115.666L219.203 140.078M105.487 25.2871L108.795 13.7519C115.134 4.45012 119.798 0.987822 131.815 0.587228L190.933 17.5389C200.731 24.7283 203.185 29.8855 202.999 40.7644L199.691 52.2995M105.487 25.2871L117.984 28.8703M199.691 52.2995L187.675 48.854M187.675 48.854L190.156 40.2027C189.331 34.3537 188.141 31.9296 184.466 29.2084L129.674 13.4971C125.945 14.1822 124.084 15.2826 121.016 18.2965L117.984 28.8703M187.675 48.854L117.984 28.8703M65.2776 58.49C67.5424 55.5276 72.3373 56.9451 72.4871 60.5573L29.4252 276.035C27.0832 278.902 22.2742 277.49 21.7351 273.83L65.2776 58.49ZM88.3479 65.1053C90.6126 62.1429 95.4075 63.5604 95.5574 67.1726L47.2086 281.134C44.8665 284.001 40.0575 282.589 39.5185 278.929L88.3479 65.1053ZM111.899 71.8584C114.164 68.896 118.958 70.3135 119.108 73.9257L64.9919 286.234C62.6499 289.101 57.8409 287.689 57.3018 284.029L111.899 71.8584ZM136.411 78.8872C138.676 75.9248 143.471 77.3422 143.62 80.9545L83.2559 291.471C80.9138 294.338 76.1048 292.926 75.5658 289.266L136.411 78.8872ZM159.481 85.5025C161.746 82.5401 166.541 83.9575 166.691 87.5697L101.52 296.708C99.1778 299.575 94.3688 298.163 93.8298 294.503L159.481 85.5025ZM183.513 92.3934C185.778 89.431 190.572 90.8485 190.722 94.4607L119.303 301.807C116.961 304.674 112.152 303.262 111.613 299.602L183.513 92.3934ZM207.544 99.2843C209.809 96.3219 214.604 97.7394 214.754 101.352L137.362 305.945C135.02 308.812 130.211 307.4 129.672 303.74L207.544 99.2843Z" stroke="#EEF1DA"/>
</svg>
